<?xml version="1.0" encoding="utf-8"?>
<!-- Svg Vector Icons : http://www.sfont.cn -->
<!DOCTYPE svg PUBLIC "-//W3C//DTD SVG 1.1//EN" "http://www.w3.org/Graphics/SVG/1.1/DTD/svg11.dtd">
<svg version="1.1" xmlns="http://www.w3.org/2000/svg" xmlns:xlink="http://www.w3.org/1999/xlink" x="0px" y="0px" viewBox="0 0 1000 1000" enable-background="new 0 0 1000 1000" xml:space="preserve">
<metadata> Svg Vector Icons : http://www.sfont.cn </metadata>
<g><g transform="translate(0.000000,512.000000) scale(0.100000,-0.100000)"><path d="M4545.6,5015.5c-42.2-3.8-170.6-17.3-285.7-26.8c-847.5-82.4-1675.7-345.1-2212.6-703.7c-329.8-218.6-582.9-513.8-676.8-786.1c-44.1-124.6-46-155.3-46-628.9c0-494.7,0-498.5,51.8-625c26.8-70.9,72.9-163,99.7-207.1l49.9-78.6l-49.9-78.6c-26.8-44.1-72.9-136.1-99.7-207.1c-51.8-126.5-51.8-128.5-51.8-634.6c0-506.2,0-508.1,51.8-634.6c26.8-70.9,72.9-163,99.7-207.1l49.9-78.6L1476,40.1C1449.2-4,1403.2-96,1376.3-166.9c-51.8-126.6-51.8-128.5-51.8-634.6c0-506.2,0-508.1,51.8-634.6c26.8-71,72.9-163,99.7-207.1l49.9-78.6l-49.9-78.6c-26.8-44.1-72.9-136.1-99.7-207.1c-51.8-126.6-51.8-130.4-51.8-625.1c0-473.6,1.9-504.3,46-628.9c226.3-659.6,1198.3-1225.2,2456.1-1430.3c464-74.8,634.6-88.2,1179.1-88.2c590.5,1.9,857,24.9,1351.7,124.6c1188.7,237.8,2049.6,766.9,2264.3,1393.9c44.1,124.6,46,155.3,46,628.9c0,494.7,0,498.5-51.8,625.1c-26.8,70.9-72.9,163-99.7,205.1l-49.8,78.6l76.7,140c124.6,233.9,138.1,316.4,130.4,835.9c-7.7,437.2-9.6,460.2-57.5,581c-26.8,70.9-72.9,161-97.8,203.2l-49.9,78.6l74.8,141.9c126.6,239.7,138.1,318.3,130.4,835.9c-7.7,437.1-9.6,460.1-57.5,580.9c-26.8,70.9-72.9,163-99.7,205.1l-49.8,78.6l76.7,140c124.6,233.9,138.1,316.4,130.4,835.9c-9.6,523.4-24.9,590.5-189.8,835.9c-410.3,615.5-1413.1,1062.2-2730.3,1219.4C5579.1,5009.8,4687.5,5029,4545.6,5015.5z M5506.2,4701.1c1131.2-88.2,2076.5-429.5,2567.3-928c404.5-410.3,391.1-814.9-44.1-1221.3c-872.4-816.8-2946.9-1135-4615-707.5C2751,2014.9,2242.9,2270,1918.9,2599.7c-393,398.8-393,776.5,0,1173.4c329.8,333.6,826.4,584.8,1495.5,755.4C4051,4691.5,4817.9,4754.8,5506.2,4701.1z M2120.2,1426.3c331.7-207.1,889.6-423.7,1370.9-531.1c1685.3-375.8,3654.4-72.9,4636,713.3l130.4,103.5l47.9-107.4c134.2-291.4,38.3-598.2-276.1-893.5C6974.9-276.2,4254.2-491,2624.5,281.7c-793.8,375.8-1150.4,880-935.6,1319.1l53.7,107.4l126.5-101.6C1938.1,1551,2051.2,1468.5,2120.2,1426.3z M2101.1-402.8c153.4-97.8,437.1-237.7,655.7-322.1c912.6-356.6,2145.5-471.7,3267.1-308.7c883.9,130.4,1679.6,441,2149.3,839.8l82.5,69l49.8-109.3c134.2-293.4,40.3-600.1-276.1-895.4c-502.3-469.7-1434.1-795.7-2523.2-880c-688.3-53.7-1457.1,9.6-2089.9,172.6c-939.5,239.7-1608.6,680.6-1760.1,1158.1c-47.9,149.6-36.4,293.3,32.6,439.1l49.9,109.3L1867.1-234C1938.1-289.7,2043.5-366.3,2101.1-402.8z M2101.1-2243.4c928-590.5,2482.9-839.8,3920.9-630.8c882,128.5,1681.5,441,2151.2,839.8l82.5,69l49.8-109.3c207.1-452.5-143.8-949.1-937.5-1324.9c-1317.2-625-3418.6-625-4743.4,0c-791.8,373.9-1146.5,874.3-935.6,1319.1l49.9,109.3l128.5-103.5C1938.1-2130.3,2043.5-2207,2101.1-2243.4z"/><path d="M4683.7,4183.4c-521.5-46-862.8-172.6-1064.1-391.1c-70.9-76.7-80.5-97.8-80.5-174.5c0-153.4,76.7-249.2,279.9-345.1c163-76.7,412.2-134.2,962.5-218.6c740.1-115,841.7-143.8,876.2-253.1c49.8-153.4-299.1-266.5-745.8-241.6c-362.4,21.1-548.3,84.4-667.2,224.3l-67.1,76.7l-304.8-38.3c-166.8-21.1-333.6-42.2-368.1-47.9l-63.3-11.5l34.5-59.4c61.3-105.4,172.6-216.7,268.4-268.4c216.7-118.9,661.5-187.9,1204.1-189.8c582.9,0,1016.2,72.9,1319.1,224.3c256.9,130.4,358.6,245.4,358.6,410.3c0,276.1-253.1,381.5-1284.6,544.5c-680.6,107.4-793.8,136.1-851.3,228.2c-36.4,59.4,23,132.3,151.5,184.1c141.9,55.6,419.9,74.8,617.4,42.2c157.2-26.8,333.6-105.5,431.4-191.7l67.1-59.4l304.8,61.4c168.7,32.6,310.6,65.2,318.3,70.9c21.1,19.2-113.1,187.9-195.6,249.3c-94,67.1-312.5,128.5-556,153.4C5349,4191.1,4892.7,4200.7,4683.7,4183.4z"/></g></g>
</svg>