<?xml version="1.0" encoding="utf-8"?>
<!-- Svg Vector Icons : http://www.sfont.cn -->
<!DOCTYPE svg PUBLIC "-//W3C//DTD SVG 1.1//EN" "http://www.w3.org/Graphics/SVG/1.1/DTD/svg11.dtd">
<svg version="1.1" xmlns="http://www.w3.org/2000/svg" xmlns:xlink="http://www.w3.org/1999/xlink" x="0px" y="0px" viewBox="0 0 1000 1000" enable-background="new 0 0 1000 1000" xml:space="preserve">
<metadata> Svg Vector Icons : http://www.sfont.cn </metadata>
<g><path d="M937.5,965.5h-875c-29,0-52.5-22.7-52.5-50.8V85.3c0-28,23.5-50.8,52.5-50.8h875c29,0,52.5,22.7,52.5,50.8v829.5C990,942.8,966.5,965.5,937.5,965.5z M885,186.9c0-28-23.5-50.8-52.5-50.8h-665c-29,0-52.5,22.8-52.5,50.8v473.9c0,28,23.5,50.8,52.5,50.8h665c29,0,52.5-22.8,52.5-50.8L885,186.9L885,186.9z M185,610.1v-67.8c0,0,87.5-101.5,140-152.4c52.5-50.7,87.5,0,87.5,0l105,101.6l-0.1,0c1.8-1.7,9.1-8.8,35.1-33.9c43.8-42.3,70,0,70,0L815,643.9c0,0-560,0-595,0C185,643.9,185,610.1,185,610.1z M753.8,322.3c-33.8,0-61.3-26.5-61.3-59.2c0-32.7,27.4-59.2,61.3-59.2c33.8,0,61.2,26.5,61.2,59.2C815,295.8,787.6,322.3,753.8,322.3z"/></g>
</svg>