<?xml version="1.0" encoding="utf-8"?>
<!-- Svg Vector Icons : http://www.sfont.cn -->
<!DOCTYPE svg PUBLIC "-//W3C//DTD SVG 1.1//EN" "http://www.w3.org/Graphics/SVG/1.1/DTD/svg11.dtd">
<svg version="1.1" xmlns="http://www.w3.org/2000/svg" xmlns:xlink="http://www.w3.org/1999/xlink" x="0px" y="0px" viewBox="0 0 1000 1000" enable-background="new 0 0 1000 1000" xml:space="preserve">
<metadata> Svg Vector Icons : http://www.sfont.cn </metadata>
<g><path d="M438.8,115V62.5c0-28.9-20.6-52.5-45.9-52.5H239.7c-25.3,0-45.9,23.6-45.9,52.5V115H10v70h183.8v52.5c0,28.9,20.6,52.5,45.9,52.5h153.2c25.3,0,45.9-23.6,45.9-52.5V185H990v-70H438.8z M255,220V80h122.5v140H255z M438.8,815v-52.5c0-28.8-20.6-52.5-45.9-52.5H239.7c-25.3,0-45.9,23.7-45.9,52.5V815H10v70h183.8v52.5c0,28.8,20.6,52.5,45.9,52.5h153.2c25.3,0,45.9-23.7,45.9-52.5V885H990v-70H438.8z M255,920V780h122.5v140H255z M806.3,412.5c0-28.8-20.7-52.5-45.9-52.5H607.2c-25.3,0-45.9,23.7-45.9,52.5V465H10v70h551.3v52.5c0,28.8,20.7,52.5,45.9,52.5h153.2c25.3,0,45.9-23.7,45.9-52.5V535H990v-70H806.3V412.5z M622.5,570V430H745v140H622.5z"/></g>
</svg>