<?xml version="1.0" encoding="utf-8"?>
<!-- Svg Vector Icons : http://www.sfont.cn -->
<!DOCTYPE svg PUBLIC "-//W3C//DTD SVG 1.1//EN" "http://www.w3.org/Graphics/SVG/1.1/DTD/svg11.dtd">
<svg version="1.1" xmlns="http://www.w3.org/2000/svg" xmlns:xlink="http://www.w3.org/1999/xlink" x="0px" y="0px" viewBox="0 0 1000 1000" enable-background="new 0 0 1000 1000" xml:space="preserve">
<metadata> Svg Vector Icons : http://www.sfont.cn </metadata>
<g><path d="M60.5,869.9v60c0,32.8,27.3,60,60,60h300.2c32.8,0,60-27.3,60-60v-60H60.5z M300.7,927.2h-60c-8.2,0-13.6-5.5-13.6-13.6c0-8.2,5.5-13.6,13.6-13.6h60c8.2,0,13.6,5.5,13.6,13.6C317.1,921.8,308.9,927.2,300.7,927.2z"/><path d="M229.7,321.3c0-13.6,2.7-24.6,5.5-38.2H126c-35.5,0-62.8,24.6-62.8,57.3v60h172C229.7,373.2,227,345.9,229.7,321.3z"/><path d="M475.4,692.5c-120.1-43.7-207.4-141.9-237.5-264.7H60.5l-8.2,412.1h420.3L475.4,692.5z"/><path d="M628.2,10.2c-182.9-5.5-338.4,131-343.9,311.1C276.1,501.4,418,651.6,600.9,659.7c182.9,8.2,338.4-131,346.6-311.1C953,168.5,811.1,18.3,628.2,10.2z M794.7,359.5L529.9,496c-13.6,5.5-30-2.7-27.3-19.1l13.6-292c0-13.6,16.4-24.6,30-16.4L797.4,324C808.3,335,808.3,354.1,794.7,359.5z"/></g>
</svg>