<?xml version="1.0" encoding="utf-8"?>
<!-- Svg Vector Icons : http://www.sfont.cn -->
<!DOCTYPE svg PUBLIC "-//W3C//DTD SVG 1.1//EN" "http://www.w3.org/Graphics/SVG/1.1/DTD/svg11.dtd">
<svg version="1.1" xmlns="http://www.w3.org/2000/svg" xmlns:xlink="http://www.w3.org/1999/xlink" x="0px" y="0px" viewBox="0 0 1000 1000" enable-background="new 0 0 1000 1000" xml:space="preserve">
<metadata> Svg Vector Icons : http://www.sfont.cn </metadata>
<g><path d="M985.9,281.5L985.9,281.5L848.1,587.8c-6.8,15.1-21.5,25.8-38.8,27l-396.9,26.5l22.9,65.5h432.2c50.7,0,91.9,41.1,91.9,91.9c0,50.8-41.2,91.9-91.9,91.9c-50.8,0-91.9-41.1-91.9-91.9H346.9c0,50.8-41.2,91.9-91.9,91.9c-50.8,0-91.9-41.1-91.9-91.9c0-50.8,41.2-91.9,91.9-91.9h83L161.2,201.4H55.9c-25.4,0-45.9-20.6-45.9-45.9c0-25.4,20.5-45.9,45.9-45.9h137.8c20,0,36.9,12.9,43.2,30.8l0.2-0.1l26.8,76.4H944c25.4,0,46,20.5,46,45.9C990,269.4,988.5,275.7,985.9,281.5 M296,308.6l84.9,242.6l394.7-26.3L873,308.6H296z"/></g>
</svg>