<?xml version="1.0" encoding="utf-8"?>
<!-- Svg Vector Icons : http://www.sfont.cn -->
<!DOCTYPE svg PUBLIC "-//W3C//DTD SVG 1.1//EN" "http://www.w3.org/Graphics/SVG/1.1/DTD/svg11.dtd">
<svg version="1.1" xmlns="http://www.w3.org/2000/svg" xmlns:xlink="http://www.w3.org/1999/xlink" x="0px" y="0px" viewBox="0 0 1000 1000" enable-background="new 0 0 1000 1000" xml:space="preserve">
<metadata> Svg Vector Icons : http://www.sfont.cn </metadata>
<g><path d="M381.6,112.6C316.4,47.3,220,32.2,140.3,67.2l115.4,115.4c30.9,30.9,30.9,81.1,0,112c-30.9,30.9-81.1,30.9-112,0L28.3,179.1C-6.6,258.8,8.4,355.2,73.7,420.5c55.7,55.8,134.1,74.7,205.4,57.4l71.8,71.9l13.4-13.4c4.3-4.3,9-7.8,14-11c-2.5-1.7-4.9-3.7-7.2-5.7l-0.9-0.7l-1.5-1.3l-1.4-1.4c-5-4.9-9.4-10.7-13.5-17.5c-4.9-8.1-8.4-16.8-10.6-25.9c-7.5-31.3,1.5-63.3,23.8-85.6l0.8-0.8l0.9-0.8l20.8-18.4l42.2-42.3c2.4-2.3,4.9-4.5,7.4-6.6l-0.3-0.4C456.3,246.7,437.4,168.3,381.6,112.6z M878.2,758.2L601.4,480.9h-67.7l-37.8,35.7c-5.9,5.9-12.6,10.8-19.8,14.7c0.6,0.5,1.3,0.9,1.8,1.5l0.2,0.3l2.1,1.5l1.8,1.8c6,6.1,11,12.9,14.9,20.2c3.8-0.5,7.7-0.8,11.7-0.8c22.3,0,43.2,8.7,58.8,24.4c14.5,14.7,22.7,33.4,24.2,52.8c12.1,4.2,23.3,10.8,32.5,19.9c17.9,18,25.9,42,24,65.4c4.4,2.5,8.6,5.5,12.6,8.8c17,14.2,27.6,34.2,29.4,56.4c2,22.1-4.7,43.6-19,60.7l-12,14.2l59.6,59.6c22,22,50.9,33.1,79.9,33.1c28.9,0,57.8-11,79.9-33.1C922.3,873.9,922.3,802.4,878.2,758.2z M833.3,873c-19.3,19.3-50.7,19.3-70,0c-19.3-19.2-19.3-50.5,0-69.9c19.3-19.4,50.7-19.4,70,0C852.6,822.5,852.6,853.8,833.3,873z"/><path d="M634.9,757.6c-8.8-7.5-20.6-11.1-32-9.9l-13,1.4l8.3-10c14.4-17.2,13.3-42.2-2.4-58C584,669.4,566,665.4,550.4,671l-15.3,5.5l9.1-13.4c11.7-17.1,9.5-40.1-5.2-54.7c-8.1-8.1-18.9-12.6-30.5-12.6c-11.5,0-22.3,4.5-30.5,12.6l-20.4,20.2l6.4-20.5c5-15.4,0.9-32.2-10.4-43.6l-1.4-1c-8.2-7.4-18.4-11.6-29.2-11.6c-2.9,0-6.1,0.3-9.8,1.3c-8,1.9-15.2,5.9-20.7,11.4l-51.9,51.9c-1.2,1.3-2.2,2.7-3.2,3.9l-0.6,0.8c-12.9,17.1-11.2,41.4,3.8,56.4c12.6,12.6,32,16.6,49.4,8.1L404,679l-6.8,13.8c-8.1,16.6-4.9,36.5,8.1,49.4c12.7,12.6,31.7,16.7,49.4,8.1l13.8-6.8l-6.8,13.7c-8.2,16.6-4.9,36.5,8.1,49.6c12.5,12.5,31.7,16.6,49.2,8.1l13.6-6.5l-6.6,13.5c-8.7,17.9-4.1,39.3,11.1,51.9c7.7,6.6,17.7,10.1,27.7,10.1c11.9,0,23.5-5.1,31.7-14.1l1.2-1.1l42.3-50.4c7.4-8.8,11-20,10-31.6C649.2,775.3,643.8,764.9,634.9,757.6z"/><path d="M972.9,362L821.6,210.6L693.2,339l-2.4-0.1c-0.7,0-1.4-0.1-2-0.2c-0.6-0.1-1.1-0.1-1.5-0.1H496.5c-13.7,0-26.6,5.3-36.3,15l-43.1,43l-21.8,19.2c-12.4,12.4-17.4,30.4-13.2,48c1.3,5.2,3.2,10.1,5.9,14.6c2.4,3.9,4.8,7.1,7.5,9.7l1.7,1.3c9.6,8.9,21.9,13.7,34.6,13.7c1.1,0,2.2-0.1,3.3-0.3l1.8-0.1c12.1-1.3,22.9-6.3,31.1-14.5l49.8-47.1H626l39,37.5L802,615.3l171-171.1C995.7,421.6,995.7,384.6,972.9,362z"/></g>
</svg>