<?xml version="1.0" encoding="utf-8"?>
<!-- Svg Vector Icons : http://www.sfont.cn -->
<!DOCTYPE svg PUBLIC "-//W3C//DTD SVG 1.1//EN" "http://www.w3.org/Graphics/SVG/1.1/DTD/svg11.dtd">
<svg version="1.1" xmlns="http://www.w3.org/2000/svg" xmlns:xlink="http://www.w3.org/1999/xlink" x="0px" y="0px" viewBox="0 0 1000 1000" enable-background="new 0 0 1000 1000" xml:space="preserve">
<metadata> Svg Vector Icons : http://www.sfont.cn </metadata>
<g><path d="M665.1,135.5c-179.4,0-324.9-135.9-324.9,45.9c0,33.9,5.1,73.2,14.4,114.8c47.8-2.9,93.9-15.8,135.3-27.3c40.2-11.2,74.9-20.8,107-20.8c39,0,83.7,14.2,103.4,72.4c0.1-0.2,0.1-0.6,0.1-0.6h144.4c1.4,5.6,2.3,8.9,2.3,13.7c0,31.7-33.4,57.4-74.5,57.4c-26.8,0-50.2-10.9-63.4-27.1c0.9,9.2,1.4,19.1,1.4,29.8c0,32.7-4.1,69.7-12,109.1c41.4,13.4,73.8,48.3,82.4,92.7l-32.2-11.2c-10-25.4-30.8-45.1-56.2-54.1c-13,54.7-32.7,112.6-58.3,167.7c10.1,2.1,20.3,3.3,30.6,3.3c179.4,0,324.9-337.8,324.9-519.6S844.5,135.5,665.1,135.5z"/><path d="M495.7,320.1c-4.4,1.2-8.8,2.4-13.3,3.7c-44.3,12-94.3,23.9-147.4,23.9c-179.5,0-324.9-135.8-324.9,46c0,181.8,145.5,519.6,324.9,519.6c179.4,0,324.9-337.8,324.9-519.6C659.8,271.1,593.7,292.9,495.7,320.1z M153.2,566.8c-1.4-2.8-2.3-8.4-2.3-13.1c0-31.6,33.4-56.9,74.5-56.9s74.5,25.1,74.5,56.9c0,4.7-1,10.3-2.3,13.1H153.2z M334.9,796.6c-64,0-117.2-47.4-129-106.3h258C452.1,749.2,398.9,796.6,334.9,796.6z M514.7,566.8H370.3c-1.4-2.8-2.3-8.4-2.3-13.1c0-31.6,33.4-56.9,74.5-56.9c41.2,0,74.5,25.1,74.5,56.9C517,558.4,516.1,564,514.7,566.8z"/></g>
</svg>