<?xml version="1.0" encoding="utf-8"?>
<!-- Svg Vector Icons : http://www.sfont.cn -->
<!DOCTYPE svg PUBLIC "-//W3C//DTD SVG 1.1//EN" "http://www.w3.org/Graphics/SVG/1.1/DTD/svg11.dtd">
<svg version="1.1" xmlns="http://www.w3.org/2000/svg" xmlns:xlink="http://www.w3.org/1999/xlink" x="0px" y="0px" viewBox="0 0 1000 1000" enable-background="new 0 0 1000 1000" xml:space="preserve">
<metadata> Svg Vector Icons : http://www.sfont.cn </metadata>
<g><g><g><polygon points="353,797.6 255,895.6 745,895.6 647,797.6 "/><path d="M10,104.4v637h980v-637H10z M230.5,545.9h-49.8l49.8-49.8h49.8L230.5,545.9z M230.5,447.8h-49.8l49.8-49.8h49.8L230.5,447.8z M230.5,349.8h-49.8l49.8-49.8h49.8L230.5,349.8z M568.2,545.9H340V496h228.1V545.9z M735,447.8H340V398h395L735,447.8L735,447.8z M819.3,349.8H340V300h479.3L819.3,349.8L819.3,349.8z"/></g></g><g></g><g></g><g></g><g></g><g></g><g></g><g></g><g></g><g></g><g></g><g></g><g></g><g></g><g></g><g></g></g>
</svg>