<?xml version="1.0" encoding="utf-8"?>
<!-- Svg Vector Icons : http://www.sfont.cn -->
<!DOCTYPE svg PUBLIC "-//W3C//DTD SVG 1.1//EN" "http://www.w3.org/Graphics/SVG/1.1/DTD/svg11.dtd">
<svg version="1.1" xmlns="http://www.w3.org/2000/svg" xmlns:xlink="http://www.w3.org/1999/xlink" x="0px" y="0px" viewBox="0 0 1000 1000" enable-background="new 0 0 1000 1000" xml:space="preserve">
<metadata> Svg Vector Icons : http://www.sfont.cn </metadata>
<g><path d="M10,903.7"/><path d="M975.2,903.7"/><path d="M14.5,865.7"/><path d="M437.5,207.1c0,25.9,16.6,46.3,37.8,46.3H666c19.9,0,37.3-20.4,37.3-46.3V58.1c0-25.4-16.6-45.8-37.3-45.8H475.2c-21.1,0-37.8,19.9-37.8,45.8L437.5,207.1L437.5,207.1z"/><path d="M171.6,583.2h465.6v159.4H171.6V583.2L171.6,583.2z"/><path d="M105,207.1c0,25.9,17.1,46.3,38.2,46.3h190c21.1,0,38.2-20.4,38.2-46.3V58.1c0-25.4-17-45.8-38.2-45.8h-190c-21.1,0-38.2,19.9-38.2,45.8V207.1z"/><path d="M36,941.4c0,25.4,16.6,46.3,37.8,46.3h658.5c21.1,0,37.8-20.9,37.8-46.3V746.1L968.9,911V420.3L770,585.7V384.4c0-25.9-16.6-45.8-37.8-45.8H73.8c-21.1,0-37.8,19.9-37.8,45.8L36,941.4L36,941.4z"/><path d="M990,865.7"/></g>
</svg>