<?xml version="1.0" encoding="utf-8"?>
<!-- Svg Vector Icons : http://www.sfont.cn -->
<!DOCTYPE svg PUBLIC "-//W3C//DTD SVG 1.1//EN" "http://www.w3.org/Graphics/SVG/1.1/DTD/svg11.dtd">
<svg version="1.1" xmlns="http://www.w3.org/2000/svg" xmlns:xlink="http://www.w3.org/1999/xlink" x="0px" y="0px" viewBox="0 0 1000 1000" enable-background="new 0 0 1000 1000" xml:space="preserve">
<metadata> Svg Vector Icons : http://www.sfont.cn </metadata>
<g><path d="M909.9,10.2H279c-13.4-0.6-27,3.5-38.1,12.2L31.4,191.7C18.4,202.4,10,218.5,10,236.6c0,0.3,0,673.1,0,673.1c0,44.2,35.9,80.1,80.1,80.1h819.8c44.2,0,80.1-35.9,80.1-80.1V90.2C989.9,46,954.1,10.2,909.9,10.2z M907.7,907.6H92.3V248.8h204.3V92.4h611.1V907.6z M266.7,515.7h122.6V316.2c0-3.8,3.1-6.9,6.9-6.9h207.7c3.8,0,6.9,3.1,6.9,6.9v199.5h122.5c2.8,0,5.4,1.7,6.4,4.4c1,2.6,0.3,5.6-1.7,7.5L504.8,748.1c-1.3,1.2-3,1.9-4.8,1.9c-1.7,0-3.4-0.6-4.8-1.9L262,527.6c-2.1-1.9-2.7-4.9-1.7-7.5C261.4,517.4,263.9,515.7,266.7,515.7z"/></g>
</svg>