<?xml version="1.0" encoding="utf-8"?>
<!-- Svg Vector Icons : http://www.sfont.cn -->
<!DOCTYPE svg PUBLIC "-//W3C//DTD SVG 1.1//EN" "http://www.w3.org/Graphics/SVG/1.1/DTD/svg11.dtd">
<svg version="1.1" xmlns="http://www.w3.org/2000/svg" xmlns:xlink="http://www.w3.org/1999/xlink" x="0px" y="0px" viewBox="0 0 1000 1000" enable-background="new 0 0 1000 1000" xml:space="preserve">
<metadata> Svg Vector Icons : http://www.sfont.cn </metadata>
<g><path d="M870.5,277.8H761.2v-6.5c0-144-117-261.3-261.2-261.3c-144,0-261.3,117.2-261.3,261.3v6.5H129.5L65.5,990h869L870.5,277.8z M513.7,759.5v50h-30.3v-48c-27.8-0.6-56.2-9.2-73-21.2l11.6-32.3c16.8,11,41.8,20.7,68.7,20.7c34.2,0,57.2-19.7,57.2-47.1c0-26.5-18.7-42.9-54.4-57.3c-49.1-19.2-79.4-41.8-79.4-83.6c0-39.9,28.4-70.3,72.3-77.5v-48h30.2v46.6c28.4,1,48.1,8.6,62.6,16.8l-12.1,31.8c-10-5.7-29.9-16.8-60.6-16.8c-37,0-50.9,22.1-50.9,41.8c0,24.6,17.7,37.1,59.6,54.8c49.5,20.3,74.5,44.8,74.5,87.6C589.8,716.1,563.3,751.7,513.7,759.5z M729.2,277.8H270.7v-6.5c0-126.3,102.8-229.2,229.3-229.2c126.4,0,229.2,102.9,229.2,229.2V277.8z"/></g>
</svg>