<?xml version="1.0" encoding="utf-8"?>
<!-- Svg Vector Icons : http://www.sfont.cn -->
<!DOCTYPE svg PUBLIC "-//W3C//DTD SVG 1.1//EN" "http://www.w3.org/Graphics/SVG/1.1/DTD/svg11.dtd">
<svg version="1.1" xmlns="http://www.w3.org/2000/svg" xmlns:xlink="http://www.w3.org/1999/xlink" x="0px" y="0px" viewBox="0 0 1000 1000" enable-background="new 0 0 1000 1000" xml:space="preserve">
<metadata> Svg Vector Icons : http://www.sfont.cn </metadata>
<g><path d="M73.8,918.5c0,39.3,32,71.5,71,71.5h319.7V668.3H73.8V918.5z"/><path d="M855.2,275.2H690.7c18.5-10.5,35.6-22.7,50.1-36.3c65.9-61.8,77.8-151,26.5-199.1C745.8,19.7,716.7,9.9,685.1,10c-43.7,0-91.9,18.8-130.2,54.7c-22.2,20.8-41.3,47.6-54.9,75.8c-13.6-28.2-32.7-54.9-54.9-75.8C406.7,28.8,358.5,10,314.8,10c-31.5,0-60.6,9.7-82.1,29.9C181.4,88,193.3,177.1,259.2,239c14.4,13.5,31.6,25.8,50,36.3H144.8c-39.1,0-71,32.2-71,71.5v250.1h390.7v-290c13-3.5,24.5-9.5,33.7-18.1c0.6-0.6,1.2-1.2,1.8-1.8c0.6,0.6,1.2,1.2,1.8,1.8c9.2,8.7,20.7,14.6,33.7,18.1v290h390.7V346.8C926.2,307.4,894.2,275.2,855.2,275.2z M604.3,118.1C627.8,96,658,82.9,685.1,82.9c8.1,0,23.2,1.3,32.8,10.3c2.2,2,8.8,8.2,8.8,23.6c0,17.2-9.3,44.3-35.4,68.7c-31.9,29.9-84.5,52.5-122.4,52.5c-10.9,0-16.1-2-17-2c0,0-0.1,0-0.1,0C544.9,221.8,560.2,159.4,604.3,118.1z M273.3,116.8c0-15.4,6.6-21.6,8.8-23.6c9.6-9,24.6-10.3,32.7-10.3c27.1,0,57.4,13.1,80.9,35.1c44.5,41.7,59.6,104.6,53.5,117c0,0-4.8,3-18.1,3c-37.9,0-90.5-22.5-122.3-52.5C282.6,161.1,273.3,134,273.3,116.8z"/><path d="M535.5,990h319.7c39.1,0,71-32.2,71-71.5V668.3H535.5V990z"/></g>
</svg>