<?xml version="1.0" encoding="utf-8"?>
<!-- Svg Vector Icons : http://www.sfont.cn -->
<!DOCTYPE svg PUBLIC "-//W3C//DTD SVG 1.1//EN" "http://www.w3.org/Graphics/SVG/1.1/DTD/svg11.dtd">
<svg version="1.1" xmlns="http://www.w3.org/2000/svg" xmlns:xlink="http://www.w3.org/1999/xlink" x="0px" y="0px" viewBox="0 0 1000 1000" enable-background="new 0 0 1000 1000" xml:space="preserve">
<metadata> Svg Vector Icons : http://www.sfont.cn </metadata>
<g><g><path d="M952.3,66.5v659.6c0,19.6-6.7,37.1-20,52.4c-13.4,15.3-30.2,27.2-50.6,35.6s-40.7,14.7-61,18.8s-39.2,6.2-56.8,6.2c-17.7,0-36.6-2.1-56.8-6.2c-20.2-4.1-40.5-10.4-61-18.8s-37.3-20.3-50.6-35.6c-13.4-15.3-20-32.8-20-52.4s6.7-37.1,20-52.4c13.3-15.3,30.2-27.2,50.6-35.6c20.4-8.4,40.7-14.7,61-18.8c20.2-4.1,39.2-6.2,56.8-6.2c41.2,0,78.9,7.7,113.1,23V319.8L424.6,459.4v417.6c0,19.6-6.7,37.1-20,52.4s-30.2,27.2-50.6,35.6c-20.4,8.4-40.7,14.7-61,18.8s-39.2,6.2-56.8,6.2c-17.7,0-36.6-2.1-56.8-6.2c-20.2-4.1-40.5-10.4-61-18.8c-20.4-8.4-37.3-20.3-50.6-35.6c-13.4-15.3-20-32.8-20-52.4s6.7-37.1,20-52.4c13.3-15.3,30.2-27.2,50.6-35.6c20.4-8.4,40.7-14.7,61-18.8c20.2-4.1,39.2-6.2,56.8-6.2c41.2,0,78.9,7.7,113.1,23V217.3c0-12.2,3.7-23.3,11.2-33.3c7.5-10,17.1-17,28.9-20.9l490-150.8c4.7-1.6,10.2-2.4,16.5-2.4c15.7,0,29.1,5.5,40,16.5C946.8,37.5,952.3,50.8,952.3,66.5L952.3,66.5z"/></g></g>
</svg>