<?xml version="1.0" encoding="utf-8"?>
<!-- Svg Vector Icons : http://www.sfont.cn -->
<!DOCTYPE svg PUBLIC "-//W3C//DTD SVG 1.1//EN" "http://www.w3.org/Graphics/SVG/1.1/DTD/svg11.dtd">
<svg version="1.1" xmlns="http://www.w3.org/2000/svg" xmlns:xlink="http://www.w3.org/1999/xlink" x="0px" y="0px" viewBox="0 0 1000 1000" enable-background="new 0 0 1000 1000" xml:space="preserve">
<metadata> Svg Vector Icons : http://www.sfont.cn </metadata>
<g><path d="M598,10H402c-18,0-32.7,14.6-32.7,32.6v196c0,18,14.6,32.7,32.7,32.7h196c18.1,0,32.7-14.6,32.7-32.7v-196C630.7,24.6,616.1,10,598,10z M957.4,10h-196c-18,0-32.6,14.6-32.6,32.6v196c0,18,14.6,32.7,32.6,32.7h196c18,0,32.6-14.6,32.6-32.7v-196C990,24.6,975.4,10,957.4,10z M238.6,10h-196C24.6,10,10,24.6,10,42.6v196c0,18,14.6,32.7,32.6,32.7h196c18.1,0,32.7-14.6,32.7-32.7v-196C271.3,24.6,256.7,10,238.6,10z M598,369.3H402c-18,0-32.7,14.6-32.7,32.6v196c0,18,14.6,32.7,32.7,32.7h196c18.1,0,32.7-14.7,32.7-32.7V402C630.7,383.9,616.1,369.3,598,369.3z M957.4,369.3h-196c-18,0-32.6,14.6-32.6,32.6v196c0,18,14.6,32.7,32.6,32.7h196c18,0,32.6-14.7,32.6-32.7V402C990,383.9,975.4,369.3,957.4,369.3z M238.6,369.3h-196c-18,0-32.6,14.6-32.6,32.6v196c0,18,14.6,32.7,32.6,32.7h196c18.1,0,32.7-14.7,32.7-32.7V402C271.3,383.9,256.7,369.3,238.6,369.3z M598,728.7H402c-18,0-32.7,14.6-32.7,32.7v196c0,18.1,14.6,32.7,32.7,32.7h196c18.1,0,32.7-14.6,32.7-32.7v-196C630.7,743.3,616.1,728.7,598,728.7z M957.4,728.7h-196c-18,0-32.6,14.6-32.6,32.7v196c0,18.1,14.6,32.7,32.6,32.7h196c18,0,32.6-14.6,32.6-32.7v-196C990,743.3,975.4,728.7,957.4,728.7z M238.6,728.7h-196c-18,0-32.6,14.6-32.6,32.7v196c0,18.1,14.6,32.7,32.6,32.7h196c18.1,0,32.7-14.6,32.7-32.7v-196C271.3,743.3,256.7,728.7,238.6,728.7z"/></g>
</svg>