<?xml version="1.0" encoding="utf-8"?>
<!-- Svg Vector Icons : http://www.sfont.cn -->
<!DOCTYPE svg PUBLIC "-//W3C//DTD SVG 1.1//EN" "http://www.w3.org/Graphics/SVG/1.1/DTD/svg11.dtd">
<svg version="1.1" xmlns="http://www.w3.org/2000/svg" xmlns:xlink="http://www.w3.org/1999/xlink" x="0px" y="0px" viewBox="0 0 1000 1000" enable-background="new 0 0 1000 1000" xml:space="preserve">
<metadata> Svg Vector Icons : http://www.sfont.cn </metadata>
<g><g><path d="M897.9,10H621.8c-50.6,0-121.3,29.3-157.1,65.1L36.9,502.9C1,538.7,1,597.3,36.9,633.1l330.1,330.1c35.8,35.8,94.4,35.8,130.2,0l427.8-427.8c35.8-35.8,65.1-106.5,65.1-157.1V102.1C990,51.4,948.6,10,897.9,10z M775.6,316.3c-50.7,0-91.9-41.1-91.9-91.9c0-50.7,41.1-91.9,91.9-91.9s91.9,41.1,91.9,91.9S826.4,316.3,775.6,316.3z"/></g><g></g><g></g><g></g><g></g><g></g><g></g><g></g><g></g><g></g><g></g><g></g><g></g><g></g><g></g><g></g></g>
</svg>