<?xml version="1.0" encoding="utf-8"?>
<!-- Svg Vector Icons : http://www.sfont.cn -->
<!DOCTYPE svg PUBLIC "-//W3C//DTD SVG 1.1//EN" "http://www.w3.org/Graphics/SVG/1.1/DTD/svg11.dtd">
<svg version="1.1" xmlns="http://www.w3.org/2000/svg" xmlns:xlink="http://www.w3.org/1999/xlink" x="0px" y="0px" viewBox="0 0 1000 1000" enable-background="new 0 0 1000 1000" xml:space="preserve">
<metadata> Svg Vector Icons : http://www.sfont.cn </metadata>
<g><path d="M874.8,144.8h-101v165.7H224.3V144.8h-99.2c-20.7,0-37.5,16.8-37.5,37.5v770.1c0,20.7,16.8,37.5,37.5,37.5h749.7c20.7,0,37.5-16.8,37.5-37.5V182.3C912.4,161.6,895.6,144.8,874.8,144.8z M791.5,466.1L466.4,864.3c1.5,4.9-5.9,5.7-10.8,1.6L219,672.2c-4.9-4-5.7-11.4-1.6-16.3l39.5-48.3c4-4.9,11.4-5.7,16.3-1.6l179.5,148.6l278.1-340.5c4-6.9,11.4-7.6,16.3-3.6l45.9,37.5C797.9,451.8,800.7,455.6,791.5,466.1z"/><path d="M640.8,96.5V66.1c0-31-25.1-56.1-56.1-56.1L415,10c-31,0-56.1,25.1-56.1,56.1v30.5h-65.9v151.1h412.3V96.5H640.8z M500.1,192c-34.1,0-61.8-27.7-61.8-61.8s27.7-61.8,61.8-61.8c34.1,0,61.8,27.7,61.8,61.8C562,169.3,534.3,192,500.1,192z"/></g>
</svg>